<svg width="29" height="20" viewBox="0 0 29 20" fill="none" xmlns="http://www.w3.org/2000/svg">
<g id="icon/color/ic_flags_kr">
<g id="KR">
<rect id="Mask" x="0.0117188" width="28" height="20" rx="3" fill="white"/>
<mask id="mask0_0_8677" style="mask-type:alpha" maskUnits="userSpaceOnUse" x="0" y="0" width="29" height="20">
<rect id="Mask_2" x="0.0117188" width="28" height="20" rx="3" fill="white"/>
</mask>
<g mask="url(#mask0_0_8677)">
<g id="Oval 9">
<circle id="Mask_3" cx="14.0114" cy="10" r="4.66667" fill="#E01B41"/>
<mask id="mask1_0_8677" style="mask-type:alpha" maskUnits="userSpaceOnUse" x="9" y="5" width="10" height="10">
<circle id="Mask_4" cx="14.0114" cy="10" r="4.66667" fill="white"/>
</mask>
<g mask="url(#mask1_0_8677)">
<path id="Rectangle 277" fill-rule="evenodd" clip-rule="evenodd" d="M9.34455 10.6667C10.6779 11.9167 12.6779 12.6667 14.0112 10.6667C15.3445 8.66675 18.0112 8.66675 18.6779 10.6667C19.3445 12.6667 18.6779 14.6667 18.6779 14.6667H9.34455C9.34455 14.6667 8.01121 9.41675 9.34455 10.6667Z" fill="#0E4B9C"/>
</g>
</g>
<path id="Rectangle 278" opacity="0.75" fill-rule="evenodd" clip-rule="evenodd" d="M6.18501 3.55661C6.27706 3.39718 6.48092 3.34256 6.64036 3.43461L7.21771 3.76794C7.37714 3.85999 7.43176 4.06385 7.33971 4.22328L5.67305 7.11003C5.581 7.26946 5.37714 7.32409 5.21771 7.23204L4.64036 6.89871C4.48092 6.80666 4.4263 6.6028 4.51835 6.44337L6.18501 3.55661ZM20.8062 3.76794C20.6467 3.85999 20.5921 4.06385 20.6842 4.22328L22.3508 7.11003C22.4429 7.26946 22.6467 7.32409 22.8062 7.23204L23.3835 6.89871C23.5429 6.80666 23.5976 6.6028 23.5055 6.44337L21.8389 3.55661C21.7468 3.39718 21.5429 3.34256 21.3835 3.43461L20.8062 3.76794ZM19.0741 4.76794C18.9147 4.85999 18.8601 5.06385 18.9521 5.22328L20.6188 8.11003C20.7108 8.26946 20.9147 8.32409 21.0741 8.23204L21.6515 7.89871C21.8109 7.80666 21.8655 7.6028 21.7735 7.44337L20.1068 4.55661C20.0148 4.39718 19.8109 4.34256 19.6515 4.43461L19.0741 4.76794ZM4.51835 13.5566C4.4263 13.3972 4.48092 13.1933 4.64036 13.1013L5.21771 12.7679C5.37714 12.6759 5.581 12.7305 5.67305 12.8899L7.33971 15.7767C7.43176 15.9361 7.37714 16.14 7.21771 16.232L6.64036 16.5654C6.48092 16.6574 6.27706 16.6028 6.18501 16.4434L4.51835 13.5566ZM6.37241 12.1013C6.21298 12.1933 6.15835 12.3972 6.2504 12.5566L7.91706 15.4434C8.00911 15.6028 8.21298 15.6574 8.37241 15.5654L8.94976 15.232C9.10919 15.14 9.16381 14.9361 9.07176 14.7767L7.4051 11.8899C7.31305 11.7305 7.10919 11.6759 6.94976 11.7679L6.37241 12.1013ZM20.6188 11.8899C20.7108 11.7305 20.9147 11.6759 21.0741 11.7679L21.6515 12.1013C21.8109 12.1933 21.8655 12.3972 21.7735 12.5566L20.1068 15.4434C20.0148 15.6028 19.8109 15.6574 19.6515 15.5654L19.0741 15.232C18.9147 15.14 18.8601 14.9361 18.9521 14.7767L20.6188 11.8899ZM22.8062 12.7679C22.6467 12.6759 22.4429 12.7305 22.3508 12.8899L20.6842 15.7767C20.5921 15.9361 20.6467 16.14 20.8062 16.232L21.3835 16.5654C21.5429 16.6574 21.7468 16.6028 21.8389 16.4434L23.5055 13.5566C23.5976 13.3972 23.5429 13.1933 23.3835 13.1013L22.8062 12.7679ZM8.37241 4.43461C8.21298 4.34256 8.00911 4.39718 7.91706 4.55661L6.2504 7.44337C6.15835 7.6028 6.21298 7.80666 6.37241 7.89871L6.94976 8.23204C7.10919 8.32409 7.31305 8.26946 7.4051 8.11003L9.07176 5.22328C9.16381 5.06385 9.10919 4.85999 8.94976 4.76794L8.37241 4.43461Z" fill="#262626"/>
</g>
</g>
</g>
</svg>
